<svg xmlns="http://www.w3.org/2000/svg" width="900" height="560" viewBox="0 0 900 560">
<rect width="900" height="560" fill="white"/>
<text x="450" y="35" text-anchor="middle" font-family="Arial" font-size="24" font-weight="bold">Learning After the Condition Change</text>
<line x1="70" y1="490" x2="830" y2="490" stroke="#222" stroke-width="2"/>
<line x1="70" y1="70" x2="70" y2="490" stroke="#222" stroke-width="2"/>
<line x1="70" y1="222.7" x2="830" y2="222.7" stroke="#777" stroke-dasharray="7 7" stroke-width="1.5"/>
<text x="826" y="214.7" text-anchor="end" font-family="Arial" font-size="14" fill="#666">80% recovery threshold</text>
<text x="450" y="542" text-anchor="middle" font-family="Arial" font-size="16">Task B training batch</text>
<text x="20" y="280" text-anchor="middle" transform="rotate(-90 20 280)" font-family="Arial" font-size="16">Task B accuracy</text>
<line x1="65" y1="451.8" x2="830" y2="451.8" stroke="#ddd" stroke-width="1"/>
<text x="58" y="456.8" text-anchor="end" font-family="Arial" font-size="13">0.5</text>
<line x1="65" y1="375.5" x2="830" y2="375.5" stroke="#ddd" stroke-width="1"/>
<text x="58" y="380.5" text-anchor="end" font-family="Arial" font-size="13">0.6</text>
<line x1="65" y1="299.1" x2="830" y2="299.1" stroke="#ddd" stroke-width="1"/>
<text x="58" y="304.1" text-anchor="end" font-family="Arial" font-size="13">0.7</text>
<line x1="65" y1="222.7" x2="830" y2="222.7" stroke="#ddd" stroke-width="1"/>
<text x="58" y="227.7" text-anchor="end" font-family="Arial" font-size="13">0.8</text>
<line x1="65" y1="146.4" x2="830" y2="146.4" stroke="#ddd" stroke-width="1"/>
<text x="58" y="151.4" text-anchor="end" font-family="Arial" font-size="13">0.9</text>
<line x1="65" y1="70.0" x2="830" y2="70.0" stroke="#ddd" stroke-width="1"/>
<text x="58" y="75.0" text-anchor="end" font-family="Arial" font-size="13">1.0</text>
<line x1="70.0" y1="490" x2="70.0" y2="495" stroke="#222" stroke-width="1"/>
<text x="70.0" y="514" text-anchor="middle" font-family="Arial" font-size="13">0</text>
<line x1="196.7" y1="490" x2="196.7" y2="495" stroke="#222" stroke-width="1"/>
<text x="196.7" y="514" text-anchor="middle" font-family="Arial" font-size="13">5</text>
<line x1="323.3" y1="490" x2="323.3" y2="495" stroke="#222" stroke-width="1"/>
<text x="323.3" y="514" text-anchor="middle" font-family="Arial" font-size="13">10</text>
<line x1="450.0" y1="490" x2="450.0" y2="495" stroke="#222" stroke-width="1"/>
<text x="450.0" y="514" text-anchor="middle" font-family="Arial" font-size="13">15</text>
<line x1="576.7" y1="490" x2="576.7" y2="495" stroke="#222" stroke-width="1"/>
<text x="576.7" y="514" text-anchor="middle" font-family="Arial" font-size="13">20</text>
<line x1="703.3" y1="490" x2="703.3" y2="495" stroke="#222" stroke-width="1"/>
<text x="703.3" y="514" text-anchor="middle" font-family="Arial" font-size="13">25</text>
<line x1="830.0" y1="490" x2="830.0" y2="495" stroke="#222" stroke-width="1"/>
<text x="830.0" y="514" text-anchor="middle" font-family="Arial" font-size="13">30</text>
<polyline points="70.0,460.4 95.3,459.2 120.7,458.5 146.0,457.9 171.3,456.6 196.7,456.0 222.0,454.9 247.3,454.3 272.7,453.7 298.0,453.1 323.3,452.2 348.7,451.1 374.0,450.1 399.3,449.4 424.7,448.9 450.0,448.0 475.3,447.8 500.7,447.4 526.0,446.3 551.3,445.9 576.7,445.7 602.0,444.8 627.3,444.0 652.7,443.4 678.0,443.0 703.3,442.3 728.7,441.9 754.0,441.7 779.3,441.5 804.7,440.7 830.0,439.8" fill="none" stroke="#2f6f9f" stroke-width="3"/>
<circle cx="70.0" cy="460.4" r="4" fill="#2f6f9f"/>
<circle cx="146.0" cy="457.9" r="4" fill="#2f6f9f"/>
<circle cx="222.0" cy="454.9" r="4" fill="#2f6f9f"/>
<circle cx="298.0" cy="453.1" r="4" fill="#2f6f9f"/>
<circle cx="374.0" cy="450.1" r="4" fill="#2f6f9f"/>
<circle cx="450.0" cy="448.0" r="4" fill="#2f6f9f"/>
<circle cx="526.0" cy="446.3" r="4" fill="#2f6f9f"/>
<circle cx="602.0" cy="444.8" r="4" fill="#2f6f9f"/>
<circle cx="678.0" cy="443.0" r="4" fill="#2f6f9f"/>
<circle cx="754.0" cy="441.7" r="4" fill="#2f6f9f"/>
<circle cx="830.0" cy="439.8" r="4" fill="#2f6f9f"/>
<polyline points="70.0,450.1 95.3,132.4 120.7,102.3 146.0,92.0 171.3,83.6 196.7,76.0 222.0,75.7 247.3,75.0 272.7,73.8 298.0,72.9 323.3,73.1 348.7,72.1 374.0,71.5 399.3,73.2 424.7,70.2 450.0,72.9 475.3,73.8 500.7,74.2 526.0,74.7 551.3,74.0 576.7,75.3 602.0,75.7 627.3,73.2 652.7,73.2 678.0,74.0 703.3,72.9 728.7,72.1 754.0,71.7 779.3,71.1 804.7,71.4 830.0,71.4" fill="none" stroke="#b44b33" stroke-width="3"/>
<circle cx="70.0" cy="450.1" r="4" fill="#b44b33"/>
<circle cx="146.0" cy="92.0" r="4" fill="#b44b33"/>
<circle cx="222.0" cy="75.7" r="4" fill="#b44b33"/>
<circle cx="298.0" cy="72.9" r="4" fill="#b44b33"/>
<circle cx="374.0" cy="71.5" r="4" fill="#b44b33"/>
<circle cx="450.0" cy="72.9" r="4" fill="#b44b33"/>
<circle cx="526.0" cy="74.7" r="4" fill="#b44b33"/>
<circle cx="602.0" cy="75.7" r="4" fill="#b44b33"/>
<circle cx="678.0" cy="74.0" r="4" fill="#b44b33"/>
<circle cx="754.0" cy="71.7" r="4" fill="#b44b33"/>
<circle cx="830.0" cy="71.4" r="4" fill="#b44b33"/>
<line x1="520" y1="84" x2="555" y2="84" stroke="#2f6f9f" stroke-width="3"/>
<text x="565" y="89" font-family="Arial" font-size="14">Previously trained, stability-biased</text>
<line x1="520" y1="112" x2="555" y2="112" stroke="#b44b33" stroke-width="3"/>
<text x="565" y="117" font-family="Arial" font-size="14">Fresh Task B model</text>
</svg>